<svg xmlns="http://www.w3.org/2000/svg" xmlns:xlink="http://www.w3.org/1999/xlink" width="1000" zoomAndPan="magnify" viewBox="0 0 750 187.499995" height="250" preserveAspectRatio="xMidYMid meet" version="1.0"><defs><g/><clipPath id="4696ae20c2"><path d="M 59.125 41.550781 L 110.460938 41.550781 L 110.460938 133.992188 L 59.125 133.992188 Z M 59.125 41.550781 " clip-rule="nonzero"/></clipPath><clipPath id="95bc0f73aa"><path d="M 66.9375 41.550781 L 102.648438 41.550781 C 104.722656 41.550781 106.707031 42.371094 108.171875 43.835938 C 109.636719 45.300781 110.460938 47.285156 110.460938 49.359375 L 110.460938 126.023438 C 110.460938 128.097656 109.636719 130.082031 108.171875 131.546875 C 106.707031 133.011719 104.722656 133.832031 102.648438 133.832031 L 66.9375 133.832031 C 64.863281 133.832031 62.875 133.011719 61.410156 131.546875 C 59.949219 130.082031 59.125 128.097656 59.125 126.023438 L 59.125 49.359375 C 59.125 47.285156 59.949219 45.300781 61.410156 43.835938 C 62.875 42.371094 64.863281 41.550781 66.9375 41.550781 Z M 66.9375 41.550781 " clip-rule="nonzero"/></clipPath><clipPath id="80c59983a5"><path d="M 14.613281 82.894531 L 110.523438 82.894531 L 110.523438 133.832031 L 14.613281 133.832031 Z M 14.613281 82.894531 " clip-rule="nonzero"/></clipPath><clipPath id="b4a2d241d5"><path d="M 22.425781 82.894531 L 102.648438 82.894531 C 104.722656 82.894531 106.707031 83.71875 108.171875 85.183594 C 109.636719 86.648438 110.460938 88.632812 110.460938 90.707031 L 110.460938 126.023438 C 110.460938 128.097656 109.636719 130.082031 108.171875 131.546875 C 106.707031 133.011719 104.722656 133.832031 102.648438 133.832031 L 22.425781 133.832031 C 20.351562 133.832031 18.367188 133.011719 16.902344 131.546875 C 15.4375 130.082031 14.613281 128.097656 14.613281 126.023438 L 14.613281 90.707031 C 14.613281 88.632812 15.4375 86.648438 16.902344 85.183594 C 18.367188 83.71875 20.351562 82.894531 22.425781 82.894531 Z M 22.425781 82.894531 " clip-rule="nonzero"/></clipPath><clipPath id="ef063810d6"><path d="M 37.066406 62.222656 L 88.007812 62.222656 L 88.007812 113.160156 L 37.066406 113.160156 Z M 37.066406 62.222656 " clip-rule="nonzero"/></clipPath><clipPath id="970631c603"><path d="M 44.878906 62.222656 L 80.195312 62.222656 C 82.269531 62.222656 84.253906 63.042969 85.71875 64.507812 C 87.183594 65.976562 88.007812 67.960938 88.007812 70.03125 L 88.007812 105.351562 C 88.007812 107.421875 87.183594 109.40625 85.71875 110.875 C 84.253906 112.339844 82.269531 113.160156 80.195312 113.160156 L 44.878906 113.160156 C 42.808594 113.160156 40.820312 112.339844 39.355469 110.875 C 37.890625 109.40625 37.066406 107.421875 37.066406 105.351562 L 37.066406 70.03125 C 37.066406 67.960938 37.890625 65.976562 39.355469 64.507812 C 40.820312 63.042969 42.808594 62.222656 44.878906 62.222656 Z M 44.878906 62.222656 " clip-rule="nonzero"/></clipPath></defs><g fill="#000000" fill-opacity="1"><g transform="translate(117.293923, 128.20679)"><g><path d="M 47.515625 -57.34375 C 47.515625 -60.132812 46.5 -62.265625 44.46875 -63.734375 C 42.4375 -65.210938 39.820312 -65.953125 36.625 -65.953125 C 33.4375 -65.953125 30.84375 -65.3125 28.84375 -64.03125 C 26.851562 -62.757812 25.859375 -60.96875 25.859375 -58.65625 C 25.859375 -57.132812 26.375 -55.9375 27.40625 -55.0625 C 28.445312 -54.1875 29.703125 -53.546875 31.171875 -53.140625 C 32.648438 -52.742188 34.066406 -52.484375 35.421875 -52.359375 C 36.785156 -52.242188 37.828125 -52.148438 38.546875 -52.078125 C 41.492188 -51.671875 44.5625 -51.109375 47.75 -50.390625 C 50.945312 -49.671875 53.984375 -48.613281 56.859375 -47.21875 C 59.734375 -45.820312 62.242188 -43.925781 64.390625 -41.53125 C 66.546875 -39.144531 68.066406 -36.070312 68.953125 -32.3125 C 69.347656 -30.164062 69.546875 -28.210938 69.546875 -26.453125 C 69.546875 -22.066406 68.585938 -18.175781 66.671875 -14.78125 C 64.753906 -11.394531 62.195312 -8.523438 59 -6.171875 C 55.8125 -3.816406 52.28125 -2.019531 48.40625 -0.78125 C 44.539062 0.457031 40.613281 1.078125 36.625 1.078125 C 33.195312 1.078125 29.625 0.519531 25.90625 -0.59375 C 22.195312 -1.71875 18.707031 -3.457031 15.4375 -5.8125 C 12.164062 -8.164062 9.507812 -11.21875 7.46875 -14.96875 C 5.4375 -18.71875 4.421875 -23.265625 4.421875 -28.609375 L 25.140625 -28.609375 C 25.140625 -25.898438 25.773438 -23.828125 27.046875 -22.390625 C 28.328125 -20.953125 29.882812 -19.992188 31.71875 -19.515625 C 33.550781 -19.035156 35.226562 -18.796875 36.75 -18.796875 C 40.101562 -18.796875 42.957031 -19.3125 45.3125 -20.34375 C 47.664062 -21.382812 48.84375 -23.101562 48.84375 -25.5 C 48.84375 -27.007812 48.34375 -28.179688 47.34375 -29.015625 C 46.34375 -29.859375 45.125 -30.476562 43.6875 -30.875 C 42.25 -31.28125 40.832031 -31.5625 39.4375 -31.71875 C 38.039062 -31.875 36.945312 -31.992188 36.15625 -32.078125 C 32.800781 -32.398438 29.367188 -32.921875 25.859375 -33.640625 C 22.347656 -34.359375 19.09375 -35.515625 16.09375 -37.109375 C 13.101562 -38.703125 10.609375 -40.992188 8.609375 -43.984375 C 6.617188 -46.984375 5.425781 -50.875 5.03125 -55.65625 L 5.03125 -55.546875 C 4.707031 -61.691406 5.984375 -66.957031 8.859375 -71.34375 C 11.734375 -75.726562 15.644531 -79.097656 20.59375 -81.453125 C 25.539062 -83.804688 31.003906 -84.984375 36.984375 -84.984375 C 40.734375 -84.984375 44.441406 -84.441406 48.109375 -83.359375 C 51.785156 -82.285156 55.140625 -80.628906 58.171875 -78.390625 C 61.203125 -76.160156 63.613281 -73.289062 65.40625 -69.78125 C 67.207031 -66.269531 68.109375 -62.125 68.109375 -57.34375 Z M 47.515625 -57.34375 "/></g></g></g><g fill="#000000" fill-opacity="1"><g transform="translate(192.226719, 128.20679)"><g><path d="M 2.640625 -79 C 2.640625 -82.675781 3.816406 -85.429688 6.171875 -87.265625 C 8.523438 -89.097656 11.054688 -90.015625 13.765625 -90.015625 C 16.640625 -90.015625 19.269531 -89.113281 21.65625 -87.3125 C 24.050781 -85.519531 25.25 -82.75 25.25 -79 C 25.25 -75.488281 24.09375 -72.851562 21.78125 -71.09375 C 19.46875 -69.34375 16.914062 -68.46875 14.125 -68.46875 C 11.25 -68.46875 8.613281 -69.34375 6.21875 -71.09375 C 3.832031 -72.851562 2.640625 -75.488281 2.640625 -79 Z M 4.421875 -64.765625 L 4.421875 0 L 23.578125 0 L 23.578125 -64.765625 Z M 4.421875 -64.765625 "/></g></g></g><g fill="#000000" fill-opacity="1"><g transform="translate(224.306562, 128.20679)"><g><path d="M 32.671875 -0.234375 C 25.734375 -0.234375 19.945312 -1.628906 15.3125 -4.421875 C 10.6875 -7.222656 7.21875 -11.015625 4.90625 -15.796875 C 2.59375 -20.585938 1.4375 -25.9375 1.4375 -31.84375 C 1.4375 -38.0625 2.59375 -43.703125 4.90625 -48.765625 C 7.21875 -53.835938 10.664062 -57.890625 15.25 -60.921875 C 19.84375 -63.960938 25.53125 -65.484375 32.3125 -65.484375 C 35.507812 -65.484375 38.625 -64.984375 41.65625 -63.984375 C 44.6875 -62.984375 47.28125 -61.085938 49.4375 -58.296875 L 49.4375 -64.765625 L 68.234375 -64.765625 L 68.234375 -3.703125 C 68.234375 2.273438 67.296875 7.398438 65.421875 11.671875 C 63.546875 15.941406 61.03125 19.410156 57.875 22.078125 C 54.71875 24.753906 51.1875 26.726562 47.28125 28 C 43.375 29.28125 39.382812 29.921875 35.3125 29.921875 C 31.320312 29.921875 27.410156 29.34375 23.578125 28.1875 C 19.742188 27.03125 16.3125 25.332031 13.28125 23.09375 C 10.25 20.863281 7.835938 18.191406 6.046875 15.078125 C 4.253906 11.972656 3.359375 8.460938 3.359375 4.546875 L 23.109375 4.546875 C 23.109375 6.460938 24.242188 8.117188 26.515625 9.515625 C 28.785156 10.910156 31.398438 11.609375 34.359375 11.609375 C 36.671875 11.609375 38.941406 11.148438 41.171875 10.234375 C 43.410156 9.316406 45.304688 7.738281 46.859375 5.5 C 48.421875 3.269531 49.28125 0.238281 49.4375 -3.59375 L 49.4375 -6.9375 C 47.363281 -4.46875 44.867188 -2.734375 41.953125 -1.734375 C 39.046875 -0.734375 35.953125 -0.234375 32.671875 -0.234375 Z M 34.828125 -47.515625 C 31.640625 -47.515625 28.96875 -46.753906 26.8125 -45.234375 C 24.65625 -43.722656 23.035156 -41.769531 21.953125 -39.375 C 20.878906 -36.988281 20.34375 -34.476562 20.34375 -31.84375 C 20.34375 -28.8125 21.039062 -26.253906 22.4375 -24.171875 C 23.84375 -22.097656 25.660156 -20.5625 27.890625 -19.5625 C 30.128906 -18.570312 32.441406 -18.078125 34.828125 -18.078125 C 37.304688 -18.148438 39.640625 -18.707031 41.828125 -19.75 C 44.023438 -20.789062 45.84375 -22.328125 47.28125 -24.359375 C 48.71875 -26.390625 49.4375 -28.882812 49.4375 -31.84375 C 49.4375 -34.71875 48.773438 -37.347656 47.453125 -39.734375 C 46.140625 -42.128906 44.382812 -44.023438 42.1875 -45.421875 C 40 -46.816406 37.546875 -47.515625 34.828125 -47.515625 Z M 34.828125 -47.515625 "/></g></g></g><g fill="#000000" fill-opacity="1"><g transform="translate(300.915161, 128.20679)"><g><path d="M 39.015625 1.078125 C 35.828125 1.078125 32.773438 0.519531 29.859375 -0.59375 C 26.953125 -1.71875 24.421875 -3.515625 22.265625 -5.984375 L 22.265625 18.90625 L 3.59375 18.90625 L 3.59375 -64.765625 L 22.265625 -64.765625 L 22.265625 -58.296875 C 24.492188 -61.085938 27.101562 -63 30.09375 -64.03125 C 33.09375 -65.070312 36.148438 -65.59375 39.265625 -65.59375 C 46.128906 -65.59375 51.851562 -63.992188 56.4375 -60.796875 C 61.03125 -57.609375 64.503906 -53.421875 66.859375 -48.234375 C 69.210938 -43.046875 70.390625 -37.460938 70.390625 -31.484375 C 70.390625 -25.578125 69.226562 -20.148438 66.90625 -15.203125 C 64.59375 -10.253906 61.125 -6.300781 56.5 -3.34375 C 51.875 -0.394531 46.046875 1.078125 39.015625 1.078125 Z M 36.984375 -47.515625 C 34.273438 -47.515625 31.800781 -46.816406 29.5625 -45.421875 C 27.332031 -44.023438 25.554688 -42.148438 24.234375 -39.796875 C 22.921875 -37.441406 22.265625 -34.828125 22.265625 -31.953125 C 22.265625 -29.085938 22.921875 -26.476562 24.234375 -24.125 C 25.554688 -21.769531 27.332031 -19.875 29.5625 -18.4375 C 31.800781 -17 34.273438 -16.28125 36.984375 -16.28125 C 40.253906 -16.28125 42.945312 -17.035156 45.0625 -18.546875 C 47.175781 -20.066406 48.769531 -22.039062 49.84375 -24.46875 C 50.925781 -26.90625 51.46875 -29.398438 51.46875 -31.953125 C 51.46875 -34.585938 50.925781 -37.082031 49.84375 -39.4375 C 48.769531 -41.789062 47.15625 -43.722656 45 -45.234375 C 42.851562 -46.753906 40.179688 -47.515625 36.984375 -47.515625 Z M 36.984375 -47.515625 "/></g></g></g><g fill="#000000" fill-opacity="1"><g transform="translate(378.720764, 128.20679)"><g><path d="M 33.03125 -65.84375 C 36.226562 -65.84375 39.300781 -65.222656 42.25 -63.984375 C 45.207031 -62.742188 47.722656 -60.769531 49.796875 -58.0625 L 49.796875 -64.765625 L 68.59375 -64.765625 L 68.59375 0 L 49.796875 0 L 49.796875 -6.46875 C 47.554688 -3.75 44.941406 -1.847656 41.953125 -0.765625 C 38.960938 0.304688 35.910156 0.84375 32.796875 0.84375 C 26.015625 0.84375 20.304688 -0.75 15.671875 -3.9375 C 11.046875 -7.132812 7.554688 -11.347656 5.203125 -16.578125 C 2.847656 -21.804688 1.671875 -27.375 1.671875 -33.28125 C 1.671875 -39.1875 2.828125 -44.613281 5.140625 -49.5625 C 7.460938 -54.507812 10.9375 -58.457031 15.5625 -61.40625 C 20.1875 -64.363281 26.007812 -65.84375 33.03125 -65.84375 Z M 35.078125 -17.234375 C 37.785156 -17.234375 40.253906 -17.929688 42.484375 -19.328125 C 44.722656 -20.722656 46.5 -22.597656 47.8125 -24.953125 C 49.132812 -27.304688 49.796875 -29.921875 49.796875 -32.796875 C 49.796875 -35.671875 49.132812 -38.304688 47.8125 -40.703125 C 46.5 -43.097656 44.722656 -44.992188 42.484375 -46.390625 C 40.253906 -47.785156 37.785156 -48.484375 35.078125 -48.484375 C 31.878906 -48.484375 29.203125 -47.722656 27.046875 -46.203125 C 24.898438 -44.691406 23.285156 -42.738281 22.203125 -40.34375 C 21.128906 -37.945312 20.59375 -35.429688 20.59375 -32.796875 C 20.59375 -30.242188 21.128906 -27.769531 22.203125 -25.375 C 23.285156 -22.976562 24.898438 -21.019531 27.046875 -19.5 C 29.203125 -17.988281 31.878906 -17.234375 35.078125 -17.234375 Z M 35.078125 -17.234375 "/></g></g></g><g fill="#000000" fill-opacity="1"><g transform="translate(455.688485, 128.20679)"><g><path d="M 2.390625 -43.9375 C 2.390625 -49.195312 3.609375 -53.460938 6.046875 -56.734375 C 8.484375 -60.003906 11.734375 -62.414062 15.796875 -63.96875 C 19.867188 -65.53125 24.300781 -66.3125 29.09375 -66.3125 C 33.71875 -66.3125 38.003906 -65.515625 41.953125 -63.921875 C 45.898438 -62.328125 49.09375 -59.894531 51.53125 -56.625 C 53.96875 -53.351562 55.1875 -49.203125 55.1875 -44.171875 L 37.109375 -44.171875 C 37.109375 -45.847656 36.609375 -47.0625 35.609375 -47.8125 C 34.609375 -48.570312 33.429688 -49.050781 32.078125 -49.25 C 30.722656 -49.457031 29.367188 -49.5625 28.015625 -49.5625 C 26.648438 -49.5625 25.207031 -49.257812 23.6875 -48.65625 C 22.175781 -48.0625 21.421875 -46.882812 21.421875 -45.125 C 21.421875 -44.007812 21.878906 -43.210938 22.796875 -42.734375 C 23.722656 -42.253906 24.800781 -41.953125 26.03125 -41.828125 C 27.269531 -41.710938 28.328125 -41.613281 29.203125 -41.53125 C 33.753906 -41.457031 38.101562 -40.703125 42.25 -39.265625 C 46.40625 -37.828125 49.816406 -35.550781 52.484375 -32.4375 C 55.160156 -29.320312 56.5 -25.210938 56.5 -20.109375 C 56.5 -14.679688 55.203125 -10.367188 52.609375 -7.171875 C 50.015625 -3.984375 46.601562 -1.710938 42.375 -0.359375 C 38.144531 0.992188 33.632812 1.671875 28.84375 1.671875 C 23.738281 1.671875 19.128906 0.875 15.015625 -0.71875 C 10.910156 -2.3125 7.640625 -4.84375 5.203125 -8.3125 C 2.773438 -11.789062 1.519531 -16.28125 1.4375 -21.78125 L 20.34375 -21.78125 C 20.425781 -19.550781 21.460938 -17.976562 23.453125 -17.0625 C 25.453125 -16.144531 27.570312 -15.6875 29.8125 -15.6875 C 32.125 -15.6875 34 -16.082031 35.4375 -16.875 C 36.875 -17.675781 37.59375 -18.59375 37.59375 -19.625 C 37.59375 -21.226562 36.953125 -22.285156 35.671875 -22.796875 C 34.390625 -23.316406 32.929688 -23.617188 31.296875 -23.703125 C 29.660156 -23.785156 28.328125 -23.863281 27.296875 -23.9375 C 23.222656 -24.34375 19.289062 -25.203125 15.5 -26.515625 C 11.707031 -27.828125 8.570312 -29.878906 6.09375 -32.671875 C 3.625 -35.472656 2.390625 -39.226562 2.390625 -43.9375 Z M 2.390625 -43.9375 "/></g></g></g><g fill="#000000" fill-opacity="1"><g transform="translate(517.334486, 128.20679)"><g><path d="M 2.390625 -43.9375 C 2.390625 -49.195312 3.609375 -53.460938 6.046875 -56.734375 C 8.484375 -60.003906 11.734375 -62.414062 15.796875 -63.96875 C 19.867188 -65.53125 24.300781 -66.3125 29.09375 -66.3125 C 33.71875 -66.3125 38.003906 -65.515625 41.953125 -63.921875 C 45.898438 -62.328125 49.09375 -59.894531 51.53125 -56.625 C 53.96875 -53.351562 55.1875 -49.203125 55.1875 -44.171875 L 37.109375 -44.171875 C 37.109375 -45.847656 36.609375 -47.0625 35.609375 -47.8125 C 34.609375 -48.570312 33.429688 -49.050781 32.078125 -49.25 C 30.722656 -49.457031 29.367188 -49.5625 28.015625 -49.5625 C 26.648438 -49.5625 25.207031 -49.257812 23.6875 -48.65625 C 22.175781 -48.0625 21.421875 -46.882812 21.421875 -45.125 C 21.421875 -44.007812 21.878906 -43.210938 22.796875 -42.734375 C 23.722656 -42.253906 24.800781 -41.953125 26.03125 -41.828125 C 27.269531 -41.710938 28.328125 -41.613281 29.203125 -41.53125 C 33.753906 -41.457031 38.101562 -40.703125 42.25 -39.265625 C 46.40625 -37.828125 49.816406 -35.550781 52.484375 -32.4375 C 55.160156 -29.320312 56.5 -25.210938 56.5 -20.109375 C 56.5 -14.679688 55.203125 -10.367188 52.609375 -7.171875 C 50.015625 -3.984375 46.601562 -1.710938 42.375 -0.359375 C 38.144531 0.992188 33.632812 1.671875 28.84375 1.671875 C 23.738281 1.671875 19.128906 0.875 15.015625 -0.71875 C 10.910156 -2.3125 7.640625 -4.84375 5.203125 -8.3125 C 2.773438 -11.789062 1.519531 -16.28125 1.4375 -21.78125 L 20.34375 -21.78125 C 20.425781 -19.550781 21.460938 -17.976562 23.453125 -17.0625 C 25.453125 -16.144531 27.570312 -15.6875 29.8125 -15.6875 C 32.125 -15.6875 34 -16.082031 35.4375 -16.875 C 36.875 -17.675781 37.59375 -18.59375 37.59375 -19.625 C 37.59375 -21.226562 36.953125 -22.285156 35.671875 -22.796875 C 34.390625 -23.316406 32.929688 -23.617188 31.296875 -23.703125 C 29.660156 -23.785156 28.328125 -23.863281 27.296875 -23.9375 C 23.222656 -24.34375 19.289062 -25.203125 15.5 -26.515625 C 11.707031 -27.828125 8.570312 -29.878906 6.09375 -32.671875 C 3.625 -35.472656 2.390625 -39.226562 2.390625 -43.9375 Z M 2.390625 -43.9375 "/></g></g></g><g fill="#000000" fill-opacity="1"><g transform="translate(578.980487, 128.20679)"><g><path d="M 51.59375 0 L 26.6875 -32.4375 L 26.6875 0 L 6.21875 0 L 6.21875 -83.796875 L 26.6875 -83.796875 L 26.6875 -51.234375 L 49.921875 -83.796875 L 74.21875 -83.796875 L 74.21875 -82.59375 L 44.53125 -42.140625 L 76.96875 -1.078125 L 76.96875 0 Z M 51.59375 0 "/></g></g></g><g fill="#000000" fill-opacity="1"><g transform="translate(657.743691, 128.20679)"><g><path d="M 2.640625 -79 C 2.640625 -82.675781 3.816406 -85.429688 6.171875 -87.265625 C 8.523438 -89.097656 11.054688 -90.015625 13.765625 -90.015625 C 16.640625 -90.015625 19.269531 -89.113281 21.65625 -87.3125 C 24.050781 -85.519531 25.25 -82.75 25.25 -79 C 25.25 -75.488281 24.09375 -72.851562 21.78125 -71.09375 C 19.46875 -69.34375 16.914062 -68.46875 14.125 -68.46875 C 11.25 -68.46875 8.613281 -69.34375 6.21875 -71.09375 C 3.832031 -72.851562 2.640625 -75.488281 2.640625 -79 Z M 4.421875 -64.765625 L 4.421875 0 L 23.578125 0 L 23.578125 -64.765625 Z M 4.421875 -64.765625 "/></g></g></g><g fill="#000000" fill-opacity="1"><g transform="translate(689.823534, 128.20679)"><g><path d="M 43.09375 0.125 C 41.175781 0.4375 39.316406 0.671875 37.515625 0.828125 C 35.722656 0.992188 34.03125 1.078125 32.4375 1.078125 C 25.332031 1.078125 19.742188 -0.734375 15.671875 -4.359375 C 11.609375 -7.992188 9.578125 -14.003906 9.578125 -22.390625 L 9.578125 -47.875 L 1.078125 -47.875 L 1.078125 -64.046875 L 9.578125 -64.046875 L 9.578125 -76.375 L 28.375 -78.046875 L 28.375 -64.046875 L 41.890625 -64.046875 L 41.890625 -47.875 L 28.375 -47.875 L 28.375 -22.390625 C 28.375 -19.515625 29.269531 -17.535156 31.0625 -16.453125 C 32.851562 -15.378906 34.867188 -14.84375 37.109375 -14.84375 C 38.859375 -14.84375 40.65625 -15.039062 42.5 -15.4375 Z M 43.09375 0.125 "/></g></g></g><g clip-path="url(#4696ae20c2)"><g clip-path="url(#95bc0f73aa)"><path fill="#000000" d="M 59.125 41.550781 L 110.460938 41.550781 L 110.460938 133.792969 L 59.125 133.792969 Z M 59.125 41.550781 " fill-opacity="1" fill-rule="nonzero"/></g></g><g clip-path="url(#80c59983a5)"><g clip-path="url(#b4a2d241d5)"><path fill="#000000" d="M 14.613281 82.894531 L 110.523438 82.894531 L 110.523438 133.832031 L 14.613281 133.832031 Z M 14.613281 82.894531 " fill-opacity="1" fill-rule="nonzero"/></g></g><g clip-path="url(#ef063810d6)"><g clip-path="url(#970631c603)"><path fill="#000000" d="M 37.066406 62.222656 L 88.007812 62.222656 L 88.007812 113.160156 L 37.066406 113.160156 Z M 37.066406 62.222656 " fill-opacity="1" fill-rule="nonzero"/></g></g></svg>